<svg fill="#000000" xmlns="http://www.w3.org/2000/svg"  viewBox="0 0 24 24" width="32px" height="32px"><path d="M 15.0625 4.21875 C 14.582031 4.265625 14.144531 4.542969 13.875 4.96875 L 11.09375 9.375 C 10.625 8.644531 10.261719 8.078125 10 7.71875 C 9.660156 7.25 9.4375 7.070313 9.25 7 L 4.15625 4.5 C 3.664063 4.261719 3.140625 4.265625 2.71875 4.53125 C 2.300781 4.792969 2.0625 5.242188 2.0625 5.78125 L 2.0625 16.90625 C 2.0625 17.582031 2.511719 18.265625 3.125 18.5625 L 7.78125 20.84375 C 8.480469 21.105469 9.042969 21.007813 9.34375 20.8125 C 9.785156 20.523438 10.03125 20.023438 10.03125 19.4375 L 10.03125 16.125 L 14.3125 18.1875 L 19.5625 20.75 C 20 20.941406 20.773438 20.996094 21.3125 20.71875 C 21.773438 20.480469 22 19.960938 22 19.40625 C 22 19.40625 22.003906 10.007813 22 8.25 C 21.996094 7.878906 21.8125 7.410156 21.15625 7.03125 C 20.4375 6.621094 18.992188 5.882813 15.9375 4.375 C 15.664063 4.242188 15.351563 4.191406 15.0625 4.21875 Z M 15.375 6.34375 C 16.707031 7 18.46875 7.875 19.53125 8.40625 L 15 15.53125 L 12.28125 11.21875 Z M 4.0625 6.65625 L 8 8.59375 L 8.03125 18.75 L 4.0625 16.8125 Z M 10 11.40625 C 10.066406 11.507813 12.28125 14.96875 12.28125 14.96875 L 10 13.875 Z M 20 11.40625 L 20 18.71875 L 16.4375 17 Z"/></svg>